<svg version="1.1" id="Layer_1" xmlns="http://www.w3.org/2000/svg" xmlns:xlink="http://www.w3.org/1999/xlink" x="0px" y="0px"
	 width="100%" viewBox="0 0 751 751" enable-background="new 0 0 751 751" xml:space="preserve">
<path fill="#FB8820" opacity="1.000000" stroke="none" 
	d="
M451.000000,1.000003 
	C550.687561,1.000000 650.375122,1.000000 750.528442,1.466034 
	C750.999817,102.131226 751.006409,202.330383 751.004150,302.529541 
	C751.004089,304.690613 750.900757,306.851685 750.483765,309.006409 
	C748.880676,308.344330 747.435059,307.912109 746.432373,306.995422 
	C741.186707,302.199860 736.472046,296.691315 730.730469,292.617920 
	C727.047119,290.004791 724.936523,287.122955 723.393921,283.173187 
	C722.911743,281.938599 721.067566,281.124329 719.705505,280.374146 
	C718.109131,279.494873 715.968506,279.299866 714.736023,278.111176 
	C704.188477,267.938599 693.575684,257.815643 683.466370,247.216202 
	C679.738159,243.307312 674.590332,240.112701 674.044983,233.612228 
	C673.934082,232.289978 671.008728,231.203827 669.287231,229.548462 
	C669.193726,180.551346 669.193726,132.014587 669.193726,82.996124 
	C666.849060,82.996124 665.060913,82.995987 663.272766,82.996147 
	C646.465637,82.997681 629.658508,83.019699 612.851379,82.996185 
	C584.898865,82.957085 556.946289,82.888771 528.938904,82.502609 
	C523.909241,76.650940 519.067200,71.002037 513.925842,65.640228 
	C507.558105,58.999481 500.938019,52.600830 494.434387,46.090176 
	C487.674561,39.323055 480.954102,32.516323 474.159943,25.783932 
	C467.833557,19.515066 461.358185,13.394672 455.114380,7.045690 
	C453.432617,5.335598 452.354950,3.031449 451.000000,1.000003 
z"/>
<path fill="#FB7B1D" opacity="1.000000" stroke="none" 
	d="
M450.531342,1.000003 
	C452.354950,3.031449 453.432617,5.335598 455.114380,7.045690 
	C461.358185,13.394672 467.833557,19.515066 474.159943,25.783932 
	C480.954102,32.516323 487.674561,39.323055 494.434387,46.090176 
	C500.938019,52.600830 507.558105,58.999481 513.925842,65.640228 
	C519.067200,71.002037 523.909241,76.650940 528.474731,82.568558 
	C481.344574,82.978271 434.623718,83.003151 387.902863,82.997238 
	C376.933197,82.995850 365.963501,82.890373 354.983887,82.477242 
	C354.797546,81.491135 354.815918,80.671715 354.415314,80.258514 
	C348.926697,74.597572 343.402313,68.970764 337.842712,63.379322 
	C330.092377,55.584633 322.315826,47.815933 314.528534,40.058163 
	C311.268738,36.810696 307.906982,33.664886 304.670685,30.394585 
	C295.617584,21.246319 286.597260,12.065518 277.605286,2.857242 
	C277.197327,2.439491 277.192566,1.628067 277.000000,1.000000 
	C334.687561,1.000000 392.375122,1.000000 450.531342,1.000003 
z"/>
<path fill="#FB6F1A" opacity="1.000000" stroke="none" 
	d="
M276.531342,1.000000 
	C277.192566,1.628067 277.197327,2.439491 277.605286,2.857242 
	C286.597260,12.065518 295.617584,21.246319 304.670685,30.394585 
	C307.906982,33.664886 311.268738,36.810696 314.528534,40.058163 
	C322.315826,47.815933 330.092377,55.584633 337.842712,63.379322 
	C343.402313,68.970764 348.926697,74.597572 354.415314,80.258514 
	C354.815918,80.671715 354.797546,81.491135 354.519775,82.543839 
	C322.318939,82.977448 290.572235,83.010849 258.825562,82.992241 
	C239.548660,82.980942 220.271805,82.889267 200.937744,82.498444 
	C194.214081,74.910522 187.737839,67.470535 180.830170,60.455376 
	C173.198608,52.705070 165.139008,45.377716 157.332123,37.797878 
	C153.933136,34.497734 150.704437,31.022482 147.389374,27.635576 
	C143.669693,23.835258 140.032761,19.947626 136.189636,16.276138 
	C131.882767,12.161633 127.330650,8.303794 123.024994,4.188073 
	C122.315651,3.510025 122.323563,2.081624 122.000000,1.000001 
	C173.354233,1.000000 224.708450,1.000000 276.531342,1.000000 
z"/>
<path fill="#FB6419" opacity="1.000000" stroke="none" 
	d="
M121.531342,1.000001 
	C122.323563,2.081624 122.315651,3.510025 123.024994,4.188073 
	C127.330650,8.303794 131.882767,12.161633 136.189636,16.276138 
	C140.032761,19.947626 143.669693,23.835258 147.389374,27.635576 
	C150.704437,31.022482 153.933136,34.497734 157.332123,37.797878 
	C165.139008,45.377716 173.198608,52.705070 180.830170,60.455376 
	C187.737839,67.470535 194.214081,74.910522 200.473755,82.566330 
	C161.337845,82.969460 122.608742,82.969460 83.181198,82.969460 
	C83.181198,88.412521 83.181198,93.199005 82.861328,97.966309 
	C79.039688,95.319084 75.198853,93.037514 72.096443,90.001396 
	C60.366322,78.521912 48.863194,66.810097 37.302299,55.158272 
	C33.016422,50.838680 28.770016,46.478577 24.569660,42.075836 
	C19.776392,37.051617 15.237084,31.767790 10.218708,26.983526 
	C7.971667,24.841312 4.826393,23.641287 2.063525,21.544933 
	C2.025539,14.384118 2.012769,7.692059 2.000000,1.000000 
	C41.687561,1.000000 81.375122,1.000000 121.531342,1.000001 
z"/>
<path fill="#FED1C3" opacity="1.000000" stroke="none" 
	d="
M752.000000,751.000000 
	C751.833618,751.333313 751.684692,751.943909 751.498169,751.955566 
	C750.170959,752.039001 748.836121,752.000000 747.503662,752.000000 
	C498.669098,752.000000 249.834549,752.000000 1.268069,751.480225 
	C1.712393,750.928101 1.888648,750.895752 2.525477,750.927734 
	C42.989346,750.941528 82.992638,750.890930 123.459938,750.912170 
	C155.280853,750.934998 186.637772,750.885925 218.459152,750.906860 
	C255.280731,750.929443 291.637848,750.882019 328.459290,750.904541 
	C340.221069,750.984314 351.518524,751.015259 362.815948,750.999756 
	C396.207336,750.953796 429.598755,750.889465 463.454834,750.901855 
	C490.515289,750.979187 517.111084,751.011536 543.706909,750.987732 
	C569.801331,750.964417 595.895752,750.884155 622.454956,750.897339 
	C665.562317,750.938843 708.204895,750.911987 751.135742,750.911987 
	C751.616028,750.959290 751.808044,750.979675 752.000000,751.000000 
z"/>
<path fill="#FDC28F" opacity="1.000000" stroke="none" 
	d="
M750.845642,309.012756 
	C750.900757,306.851685 751.004089,304.690613 751.004150,302.529541 
	C751.006409,202.330383 750.999817,102.131226 750.997070,1.466035 
	C751.333313,2.331710 751.956360,3.663071 751.958008,4.995180 
	C752.009094,47.453712 752.000000,89.912315 752.000000,132.370911 
	C752.000000,235.936584 752.000000,339.502258 751.788391,443.528076 
	C751.576782,443.988251 751.153442,443.986481 751.103088,443.521179 
	C751.039795,436.743927 751.023865,430.431976 751.014465,424.120026 
	C750.957397,385.750946 750.901733,347.381836 750.845642,309.012756 
z"/>
<path fill="#FD6A4A" opacity="1.000000" stroke="none" 
	d="
M2.064902,750.863403 
	C1.888648,750.895752 1.712393,750.928101 1.268069,750.980225 
	C1.000000,616.976685 1.000000,482.953339 1.227260,348.458923 
	C1.454519,347.987823 1.909131,347.979797 1.946808,348.449310 
	C2.024563,391.952179 2.064640,434.985535 2.079186,478.485657 
	C2.067873,524.973206 2.082092,570.993958 2.063186,617.480896 
	C2.041674,662.252502 2.053288,706.557983 2.064902,750.863403 
z"/>
<path fill="#FD7E4E" opacity="1.000000" stroke="none" 
	d="
M1.909131,347.979797 
	C1.909131,347.979797 1.454519,347.987823 1.227260,347.993896 
	C1.000000,232.333328 1.000000,116.666664 1.500000,1.000000 
	C2.012769,7.692059 2.025539,14.384118 2.037726,22.011608 
	C2.051473,76.305336 2.065801,129.663635 2.054969,183.487701 
	C2.047292,230.639725 2.064776,277.325958 2.054716,324.479370 
	C1.987825,332.624268 1.948478,340.302032 1.909131,347.979797 
z"/>
<path fill="#FDB68D" opacity="1.000000" stroke="none" 
	d="
M751.153442,443.986481 
	C751.153442,443.986481 751.576782,443.988251 751.788391,443.994141 
	C752.000000,546.021423 752.000000,648.042908 752.000000,750.532166 
	C751.808044,750.979675 751.616028,750.959290 751.191528,750.454163 
	C750.921631,735.982117 750.884277,721.994812 750.908813,707.541870 
	C750.979309,667.332703 751.007935,627.589294 750.988953,587.845825 
	C750.977661,564.234375 750.891479,540.622864 750.896484,516.545227 
	C751.020447,492.048187 751.086975,468.017334 751.153442,443.986481 
z"/>
<path fill="#FFFFFF" opacity="1.000000" stroke="none" 
	d="
M83.181198,97.985489 
	C83.181198,93.199005 83.181198,88.412521 83.181198,82.969460 
	C122.608742,82.969460 161.337845,82.969460 200.530945,82.901581 
	C220.271805,82.889267 239.548660,82.980942 258.825562,82.992241 
	C290.572235,83.010849 322.318939,82.977448 354.529724,82.899384 
	C365.963501,82.890373 376.933197,82.995850 387.902863,82.997238 
	C434.623718,83.003151 481.344574,82.978271 528.529602,82.898697 
	C556.946289,82.888771 584.898865,82.957085 612.851379,82.996185 
	C629.658508,83.019699 646.465637,82.997681 663.272766,82.996147 
	C665.060913,82.995987 666.849060,82.996124 669.193726,82.996124 
	C669.193726,132.014587 669.193726,180.551346 669.202942,230.009613 
	C669.197815,233.423462 669.172668,235.915756 669.170837,238.408096 
	C669.134705,287.260895 669.101257,336.113678 668.593262,384.981537 
	C642.705200,384.996613 617.291077,384.996613 591.794800,384.996613 
	C591.794800,387.611969 591.794800,389.682465 591.794800,392.181885 
	C601.661682,392.181885 611.235046,392.181885 621.186646,392.181885 
	C621.186646,422.330688 621.186646,452.046539 621.186646,481.750854 
	C627.669800,481.750854 633.754761,481.750854 640.267700,481.750854 
	C640.267700,451.792236 640.267700,422.080017 640.267700,392.033356 
	C650.152832,392.033356 659.610474,392.033356 669.102722,392.498871 
	C669.218079,407.646637 669.298767,422.328857 669.295288,437.472107 
	C669.122070,448.569550 669.033203,459.206024 668.646729,469.594177 
	C664.862915,464.752899 660.537659,463.543732 656.317749,465.982300 
	C652.494507,468.191681 651.015381,473.060059 652.880249,477.296478 
	C655.755737,483.828613 663.582947,483.867554 669.017761,477.880798 
	C669.105469,526.441650 669.125488,574.498108 669.161377,622.554565 
	C669.162964,624.709656 669.308044,626.864563 669.299744,629.479370 
	C669.213196,642.838684 669.213196,655.738220 669.213196,669.003418 
	C666.434692,669.003418 664.305359,669.000854 662.175964,669.003845 
	C623.448792,669.058044 584.721558,669.112915 545.530457,669.099365 
	C508.993591,669.020203 472.920654,668.990234 436.847717,669.006775 
	C419.563263,669.014648 402.278900,669.110535 384.530640,669.097534 
	C365.790497,669.019836 347.514130,668.986267 329.237823,669.008240 
	C302.824127,669.040039 276.410492,669.112183 249.532974,669.097046 
	C213.711533,669.073608 178.353943,669.120239 142.532715,669.095703 
	C122.655022,669.024597 103.240952,669.024597 83.495583,669.024597 
	C83.495583,653.869507 83.535538,639.398682 83.486275,624.928162 
	C83.411430,602.947876 83.274673,580.967773 83.297493,558.590088 
	C83.449051,521.266357 83.498390,484.340149 83.470093,447.413971 
	C83.459007,432.955994 83.273758,418.498169 83.309135,403.589172 
	C83.466171,359.965302 83.481903,316.792480 83.930496,273.698914 
	C90.972366,273.906525 95.191818,276.812836 96.973740,283.513336 
	C98.376045,288.786438 100.574066,293.849182 102.441765,298.997009 
	C110.649071,321.618317 118.864769,344.236633 127.132317,367.007202 
	C130.946304,367.007202 134.620285,366.762207 138.245193,367.078949 
	C141.592926,367.371490 143.072983,366.269440 144.216751,362.998596 
	C149.359879,348.290802 154.859344,333.707611 160.543716,318.225922 
	C165.101776,330.729431 169.317764,342.410553 173.627716,354.056915 
	C175.220657,358.361389 175.907806,364.280670 179.059891,366.374268 
	C182.314499,368.535950 188.063873,366.945557 192.721939,366.981323 
	C193.045227,366.983826 193.369492,366.859222 193.951736,366.741455 
	C205.638992,334.717499 217.372406,302.567078 229.170593,270.239227 
	C220.073853,269.701080 220.073074,269.700806 217.330688,277.262421 
	C216.877502,278.512024 216.440399,279.767426 215.985703,281.016449 
	C207.919006,303.176025 199.850754,325.334991 191.558426,348.110382 
	C190.574768,345.682953 189.798935,343.878113 189.106079,342.041992 
	C180.491058,319.211853 171.918472,296.365601 163.208252,273.571899 
	C162.673126,272.171570 161.138992,270.234680 159.961304,270.155273 
	C154.533890,269.789459 149.068039,269.994019 143.100403,269.994019 
	C147.086716,280.942047 150.917358,291.366882 154.651596,301.826141 
	C155.184143,303.317780 155.895142,305.203064 155.431503,306.522430 
	C150.664307,320.088623 145.671936,333.575714 140.318283,348.246948 
	C130.204498,321.442017 120.504944,295.734894 110.770569,269.935486 
	C101.469887,269.935486 92.480782,269.935486 83.483673,269.515564 
	C83.376015,267.422028 83.276352,265.748383 83.323792,263.690674 
	C83.489273,209.018539 83.509163,154.730530 83.511650,100.442528 
	C83.511688,99.623520 83.296135,98.804504 83.181198,97.985489 
M303.054382,473.973267 
	C305.209747,470.059631 308.118164,466.375336 309.391815,462.193146 
	C315.310059,442.760529 315.465393,423.164062 308.877625,403.864624 
	C305.112427,392.834137 296.934296,385.487213 285.581024,383.458557 
	C277.046631,381.933594 267.946472,381.487366 259.382965,382.653137 
	C242.214157,384.990356 231.894531,394.806061 229.318665,411.971008 
	C227.512253,424.008301 227.229431,436.510498 228.127792,448.667511 
	C229.914307,472.843170 243.992340,485.113403 268.129639,485.170593 
	C283.286652,485.206482 298.443817,485.182892 313.600922,485.166168 
	C315.028687,485.164581 316.456329,485.020660 317.884003,484.942810 
	C318.052032,484.519470 318.220032,484.096130 318.388031,483.672760 
	C317.336609,482.920349 316.385529,481.845795 315.213440,481.480560 
	C312.526672,480.643341 309.525269,480.577759 307.051727,479.375580 
	C305.316315,478.532135 304.240967,476.330566 303.054382,473.973267 
M295.987854,364.571777 
	C303.062714,360.106323 307.732941,353.716003 309.971619,345.785553 
	C315.058777,327.764587 315.068176,309.601013 309.871338,291.634155 
	C306.318176,279.349915 298.068054,270.824768 285.448395,268.514984 
	C276.924133,266.954773 267.849976,266.828827 259.213348,267.787231 
	C242.483078,269.643799 232.830139,280.178589 229.258759,296.216431 
	C225.961868,311.021576 225.978607,325.994629 229.103439,340.840546 
	C231.553848,352.482300 237.193375,362.312897 248.878189,366.593170 
	C264.421844,372.286896 280.107849,372.468689 295.987854,364.571777 
M485.995605,285.503418 
	C485.995605,312.581451 485.995605,339.659485 485.995605,365.997284 
	C502.327728,365.997284 518.148987,366.797028 533.852783,365.780945 
	C550.854004,364.680878 561.520264,354.243561 564.955627,337.624084 
	C567.580261,324.926605 567.667297,312.163147 564.957947,299.475342 
	C561.968506,285.476227 554.093933,275.595551 539.771484,272.202789 
	C522.084412,268.013031 504.094299,270.748901 485.995605,269.915344 
	C485.995605,275.223694 485.995605,279.864288 485.995605,285.503418 
M326.823151,306.499908 
	C326.823151,326.574921 326.823151,346.649902 326.823151,366.667664 
	C333.479614,366.667664 339.538055,366.667664 346.043610,366.667664 
	C346.043610,336.630768 346.043610,306.929138 346.043610,277.210266 
	C351.643036,277.210266 356.830994,276.761871 361.913849,277.302124 
	C373.040710,278.484833 378.142151,284.493347 378.479156,295.964630 
	C378.813477,307.344452 373.080627,315.083099 362.788300,317.004089 
	C359.950073,317.533875 357.062714,317.800110 353.777283,318.244080 
	C363.732574,334.129974 373.403961,349.613892 383.178253,365.032593 
	C383.763855,365.956421 385.156219,366.886902 386.199280,366.917206 
	C392.298309,367.094421 398.405090,367.004120 405.321747,367.004120 
	C395.197235,351.839600 385.483826,337.290863 375.524231,322.373352 
	C384.388702,320.804749 391.966736,318.167999 396.235016,310.172943 
	C404.804810,294.120514 397.236969,276.437592 379.607849,272.165070 
	C362.252319,267.958893 344.581390,270.789429 326.823151,269.890869 
	C326.823151,282.222748 326.823151,293.861298 326.823151,306.499908 
M531.337708,420.183533 
	C542.593262,439.578369 553.825317,458.986969 565.152466,478.339905 
	C565.985657,479.763367 567.429626,481.725403 568.718140,481.828278 
	C573.787537,482.232971 578.908325,481.994019 583.862793,481.994019 
	C583.862793,449.331970 583.862793,417.282776 583.862793,385.248566 
	C580.797119,385.248566 578.049500,385.248566 574.875610,385.248566 
	C574.875610,410.838745 574.875610,436.178741 574.875610,462.857544 
	C573.425293,460.478973 572.664124,459.284210 571.954834,458.059418 
	C558.554871,434.920288 545.188477,411.761627 531.702942,388.672516 
	C530.829041,387.176239 529.117188,385.269012 527.676880,385.163208 
	C522.102051,384.753723 516.479370,384.996765 510.743500,384.996765 
	C510.743500,417.584778 510.743500,449.658478 510.743500,481.618103 
	C513.896484,481.618103 516.787476,481.618103 520.092773,481.618103 
	C520.092773,454.899750 520.092773,428.567627 520.092773,400.799225 
	C524.219482,407.884979 527.611084,413.708435 531.337708,420.183533 
M326.823914,398.506134 
	C326.824036,417.163605 326.738312,435.821564 326.850372,454.478363 
	C326.946838,470.534698 333.829803,480.934540 348.149048,483.331940 
	C358.303986,485.032135 369.063660,484.977356 379.317139,483.743042 
	C391.071045,482.328064 398.067413,474.044098 399.914276,462.422607 
	C400.564850,458.328827 400.935974,454.147797 400.957520,450.004150 
	C401.062347,429.847961 401.010040,409.690887 400.995758,389.534149 
	C400.994720,388.092346 400.852570,386.650696 400.782471,385.330994 
	C397.209442,385.330994 393.987396,385.330994 390.488007,385.330994 
	C390.488007,390.808685 390.517120,395.954987 390.482819,401.100891 
	C390.358459,419.747345 390.382599,438.397156 389.996979,457.038391 
	C389.827301,465.240509 387.346497,473.267365 378.754120,475.836304 
	C372.487274,477.709900 365.380768,477.675720 358.751617,477.162109 
	C353.082703,476.722900 349.156006,472.475342 347.829681,466.846680 
	C346.735504,462.203522 345.978271,457.368591 345.932037,452.610291 
	C345.731323,431.955719 345.845795,411.298096 345.845703,390.641602 
	C345.845703,388.868561 345.845703,387.095551 345.845703,385.285034 
	C339.199066,385.285034 333.124573,385.285034 326.823914,385.285034 
	C326.823914,389.550964 326.823914,393.529633 326.823914,398.506134 
M435.896210,441.700134 
	C439.175262,450.746277 442.387177,459.817596 445.762085,468.827881 
	C447.419006,473.251526 448.240356,479.341125 451.513458,481.434326 
	C454.937805,483.624237 460.850159,481.923645 465.999634,481.923645 
	C477.730286,449.776123 489.468140,417.608826 501.312653,385.149231 
	C497.813416,385.149231 495.018463,385.149231 492.096710,385.149231 
	C488.794403,394.119324 485.405487,402.951538 482.335846,411.893402 
	C481.432251,414.525513 480.302704,415.600098 477.432892,415.546967 
	C468.107086,415.374390 458.772278,415.330811 449.449310,415.566925 
	C446.336090,415.645782 445.083893,414.434296 444.119080,411.726807 
	C441.278412,403.755035 438.278015,395.836761 435.132721,387.980560 
	C434.644623,386.761414 433.091461,385.154907 431.991425,385.123871 
	C423.549500,384.885803 415.097870,384.993042 406.649231,384.993042 
	C406.427490,385.511536 406.205719,386.029999 405.983978,386.548492 
	C407.190308,387.349396 408.348907,388.748199 409.611145,388.848969 
	C415.436279,389.314026 418.227264,392.618652 420.049713,397.898560 
	C425.030029,412.327240 430.394928,426.623199 435.896210,441.700134 
M456.499451,367.019165 
	C462.601074,367.019165 468.702698,367.019165 474.741974,367.019165 
	C474.741974,364.382355 474.741974,362.318176 474.741974,359.980225 
	C464.341187,359.980225 454.215485,359.993286 444.089844,359.975525 
	C437.617889,359.964142 437.153809,359.522644 436.662781,352.925385 
	C436.539551,351.269775 436.545868,349.602173 436.545410,347.940094 
	C436.538727,323.809601 436.541016,299.679138 436.541168,275.548645 
	C436.541199,273.772186 436.541168,271.995758 436.541168,270.322754 
	C429.869293,270.322754 423.810577,270.322754 417.767151,270.322754 
	C417.767151,302.705048 417.767151,334.743347 417.767151,367.019165 
	C430.554443,367.019165 443.027008,367.019165 456.499451,367.019165 
z"/>
<path fill="#FB791E" opacity="1.000000" stroke="none" 
	d="
M669.067261,384.966461 
	C669.101257,336.113678 669.134705,287.260895 669.170837,238.408096 
	C669.172668,235.915756 669.197815,233.423462 669.296509,230.470001 
	C671.008728,231.203827 673.934082,232.289978 674.044983,233.612228 
	C674.590332,240.112701 679.738159,243.307312 683.466370,247.216202 
	C693.575684,257.815643 704.188477,267.938599 714.736023,278.111176 
	C715.968506,279.299866 718.109131,279.494873 719.705505,280.374146 
	C721.067566,281.124329 722.911743,281.938599 723.393921,283.173187 
	C724.936523,287.122955 727.047119,290.004791 730.730469,292.617920 
	C736.472046,296.691315 741.186707,302.199860 746.432373,306.995422 
	C747.435059,307.912109 748.880676,308.344330 750.483765,309.006409 
	C750.901733,347.381836 750.957397,385.750946 751.014465,424.120026 
	C751.023865,430.431976 751.039795,436.743927 751.103088,443.521179 
	C751.086975,468.017334 751.020447,492.048187 750.566101,516.484497 
	C744.946228,513.797058 743.049255,507.559875 737.012634,504.565399 
	C732.249084,502.202423 729.666504,495.680786 725.731384,491.355408 
	C719.303345,484.289703 712.597046,477.475037 705.937866,470.622681 
	C703.072327,467.674042 700.027588,464.899780 697.070679,462.039703 
	C692.919983,458.024811 688.734619,454.044464 684.642700,449.970367 
	C682.087097,447.425781 678.820190,445.122437 677.415894,442.013702 
	C675.638062,438.077637 673.322327,436.662415 669.379517,437.011108 
	C669.298767,422.328857 669.218079,407.646637 669.262817,392.175842 
	C669.281189,389.247009 669.174255,387.106720 669.067261,384.966461 
z"/>
<path fill="#FC5B19" opacity="1.000000" stroke="none" 
	d="
M82.861328,97.966309 
	C83.296135,98.804504 83.511688,99.623520 83.511650,100.442528 
	C83.509163,154.730530 83.489273,209.018539 83.005676,263.547211 
	C81.970779,263.446747 81.299744,263.206360 80.846001,262.749969 
	C61.767361,243.559982 42.682293,224.376205 23.666714,205.123810 
	C19.507957,200.913269 15.678649,196.378754 11.561059,192.125656 
	C8.515563,188.979919 5.248487,186.048706 2.080125,183.021942 
	C2.065801,129.663635 2.051473,76.305336 2.062943,22.480366 
	C4.826393,23.641287 7.971667,24.841312 10.218708,26.983526 
	C15.237084,31.767790 19.776392,37.051617 24.569660,42.075836 
	C28.770016,46.478577 33.016422,50.838680 37.302299,55.158272 
	C48.863194,66.810097 60.366322,78.521912 72.096443,90.001396 
	C75.198853,93.037514 79.039688,95.319084 82.861328,97.966309 
z"/>
<path fill="#FC380E" opacity="1.000000" stroke="none" 
	d="
M83.164223,558.987610 
	C83.274673,580.967773 83.411430,602.947876 83.486275,624.928162 
	C83.535538,639.398682 83.495583,653.869507 83.495583,669.024597 
	C103.240952,669.024597 122.655022,669.024597 142.544708,669.450195 
	C144.958450,672.691895 146.529602,675.872437 148.899963,678.259399 
	C157.918427,687.341187 167.307617,696.054382 176.346863,705.116211 
	C187.820312,716.618286 199.198975,728.220520 210.370895,740.014221 
	C213.373901,743.184387 215.477951,747.206116 217.994690,750.836914 
	C186.637772,750.885925 155.280853,750.934998 123.460983,750.489380 
	C123.760490,745.293091 122.116852,742.005432 117.546021,740.194275 
	C116.381882,739.733032 115.391075,738.681152 114.487381,737.740540 
	C108.050034,731.039673 101.788956,724.163757 95.209106,717.607178 
	C89.143387,711.562988 82.658493,705.941223 76.533142,699.954529 
	C72.419525,695.933960 68.688705,691.524597 64.648453,687.425476 
	C57.377705,680.048767 49.938641,672.837463 42.699127,665.430786 
	C39.036560,661.683655 35.872208,657.435974 32.101475,653.811035 
	C25.275280,647.248779 17.912407,641.230530 11.279610,634.487488 
	C8.082433,631.237122 4.906988,627.500916 5.765543,621.916382 
	C5.982702,620.503906 3.395084,618.660217 2.096310,617.014709 
	C2.082092,570.993958 2.067873,524.973206 2.434131,478.489624 
	C3.589943,478.277466 4.552099,478.317383 5.110717,478.812531 
	C9.174715,482.414764 13.434050,485.857849 17.066580,489.863647 
	C19.404074,492.441376 23.022852,495.337433 19.428738,499.738800 
	C19.094095,500.148651 19.845432,501.979462 20.567394,502.565765 
	C21.270868,503.137054 22.606596,503.165680 23.623854,503.055450 
	C24.921709,502.914856 26.178547,502.395721 27.453068,502.039764 
	C27.563856,503.631866 27.615734,505.230988 27.803825,506.813904 
	C27.958002,508.111420 27.963865,509.599548 28.637594,510.596069 
	C29.028772,511.174622 30.629177,511.145844 31.647736,511.037140 
	C32.943924,510.898712 34.201942,510.402832 35.476418,510.061066 
	C35.573517,511.654816 35.601837,513.256714 35.789192,514.839783 
	C35.942661,516.136536 35.978886,517.622192 36.662430,518.613708 
	C37.056362,519.185120 38.651760,519.125732 39.671562,519.018677 
	C40.965790,518.882874 42.224705,518.410706 43.498852,518.083557 
	C43.582527,519.678589 43.587639,521.282837 43.774410,522.865723 
	C43.927330,524.161621 43.993767,525.644958 44.687180,526.631409 
	C45.083954,527.195862 46.674397,527.105652 47.695431,527.000305 
	C48.987717,526.866882 50.247486,526.418457 51.521278,526.105957 
	C51.684872,527.564758 52.453831,529.333557 51.896008,530.422913 
	C50.359756,533.423218 51.682606,535.168396 54.193043,535.726379 
	C57.430664,536.445862 59.255054,537.640198 59.179657,541.258362 
	C59.156807,542.354797 60.664055,543.399109 61.048405,544.602112 
	C63.245251,551.477844 72.215767,552.276672 74.305275,559.416077 
	C74.546753,560.241150 77.742905,560.478638 79.565483,560.465759 
	C80.768486,560.457275 81.964874,559.512939 83.164223,558.987610 
z"/>
<path fill="#FB5E17" opacity="1.000000" stroke="none" 
	d="
M545.994385,669.167664 
	C584.721558,669.112915 623.448792,669.058044 662.175964,669.003845 
	C664.305359,669.000854 666.434692,669.003418 669.213196,669.003418 
	C669.213196,655.738220 669.213196,642.838684 669.638428,629.492432 
	C671.069031,629.560242 672.282349,629.864868 673.046936,630.622375 
	C679.263306,636.781189 685.501892,642.923950 691.525879,649.268921 
	C698.455078,656.567383 705.008179,664.226685 712.019897,671.442383 
	C722.150391,681.867554 732.478882,692.104004 742.881226,702.258728 
	C745.198608,704.521057 748.174316,706.109070 750.846863,708.007568 
	C750.884277,721.994812 750.921631,735.982117 750.903198,750.427246 
	C708.204895,750.911987 665.562317,750.938843 622.455566,750.512207 
	C621.543335,746.233704 620.343445,744.078064 615.840210,742.553162 
	C610.650757,740.796021 608.244812,734.197083 603.117065,731.334900 
	C602.954163,731.243896 603.047913,730.703613 603.011475,730.373962 
	C602.608459,726.726196 601.591736,724.662231 597.792786,727.931274 
	C597.162476,728.473694 595.173462,728.315186 594.519348,727.712830 
	C593.820923,727.069580 593.407532,724.788147 593.820618,724.474487 
	C597.459412,721.711975 595.294373,719.791809 593.179199,717.660034 
	C579.029663,703.399414 564.893860,689.125000 550.795898,674.813416 
	C549.066833,673.058167 547.588745,671.055603 545.994385,669.167664 
z"/>
<path fill="#FC5214" opacity="1.000000" stroke="none" 
	d="
M545.530457,669.099365 
	C547.588745,671.055603 549.066833,673.058167 550.795898,674.813416 
	C564.893860,689.125000 579.029663,703.399414 593.179199,717.660034 
	C595.294373,719.791809 597.459412,721.711975 593.820618,724.474487 
	C593.407532,724.788147 593.820923,727.069580 594.519348,727.712830 
	C595.173462,728.315186 597.162476,728.473694 597.792786,727.931274 
	C601.591736,724.662231 602.608459,726.726196 603.011475,730.373962 
	C603.047913,730.703613 602.954163,731.243896 603.117065,731.334900 
	C608.244812,734.197083 610.650757,740.796021 615.840210,742.553162 
	C620.343445,744.078064 621.543335,746.233704 621.990784,750.443726 
	C595.895752,750.884155 569.801331,750.964417 543.706909,750.987732 
	C517.111084,751.011536 490.515289,750.979187 463.399536,750.570068 
	C458.688049,746.025940 454.435608,741.942566 450.316864,737.728516 
	C439.879608,727.049805 429.488159,716.326050 419.112030,705.587830 
	C416.820679,703.216492 414.766754,700.611816 412.430634,698.288391 
	C408.586670,694.465332 404.537689,690.848389 400.692230,687.026672 
	C396.026825,682.390259 391.432281,677.679138 386.928711,672.886047 
	C386.007660,671.905884 385.625214,670.419556 384.994476,669.166565 
	C402.278900,669.110535 419.563263,669.014648 436.847717,669.006775 
	C472.920654,668.990234 508.993591,669.020203 545.530457,669.099365 
z"/>
<path fill="#FC4711" opacity="1.000000" stroke="none" 
	d="
M384.530640,669.097534 
	C385.625214,670.419556 386.007660,671.905884 386.928711,672.886047 
	C391.432281,677.679138 396.026825,682.390259 400.692230,687.026672 
	C404.537689,690.848389 408.586670,694.465332 412.430634,698.288391 
	C414.766754,700.611816 416.820679,703.216492 419.112030,705.587830 
	C429.488159,716.326050 439.879608,727.049805 450.316864,737.728516 
	C454.435608,741.942566 458.688049,746.025940 462.934875,750.500488 
	C429.598755,750.889465 396.207336,750.953796 362.815948,750.999756 
	C351.518524,751.015259 340.221069,750.984314 328.449188,750.547729 
	C327.356964,748.995972 326.951111,747.662598 326.084991,746.781982 
	C322.197235,742.829468 318.065674,739.113892 314.232361,735.111511 
	C307.687958,728.278442 301.471832,721.124512 294.799286,714.422485 
	C288.267487,707.861694 281.333160,701.701904 274.597290,695.343079 
	C274.257965,695.022827 274.201385,694.416687 273.884796,694.056519 
	C270.187103,689.849426 266.473572,685.656006 262.732727,681.487305 
	C262.417542,681.136108 261.899170,680.920288 261.434631,680.757263 
	C256.651489,679.078674 256.353333,675.806824 257.827484,672.750793 
	C255.144943,671.523132 252.570877,670.345154 249.996811,669.167114 
	C276.410492,669.112183 302.824127,669.040039 329.237823,669.008240 
	C347.514130,668.986267 365.790497,669.019836 384.530640,669.097534 
z"/>
<path fill="#FC3E0F" opacity="1.000000" stroke="none" 
	d="
M249.532974,669.097046 
	C252.570877,670.345154 255.144943,671.523132 257.827484,672.750793 
	C256.353333,675.806824 256.651489,679.078674 261.434631,680.757263 
	C261.899170,680.920288 262.417542,681.136108 262.732727,681.487305 
	C266.473572,685.656006 270.187103,689.849426 273.884796,694.056519 
	C274.201385,694.416687 274.257965,695.022827 274.597290,695.343079 
	C281.333160,701.701904 288.267487,707.861694 294.799286,714.422485 
	C301.471832,721.124512 307.687958,728.278442 314.232361,735.111511 
	C318.065674,739.113892 322.197235,742.829468 326.084991,746.781982 
	C326.951111,747.662598 327.356964,748.995972 327.984863,750.477783 
	C291.637848,750.882019 255.280731,750.929443 218.459167,750.906860 
	C215.477951,747.206116 213.373901,743.184387 210.370895,740.014221 
	C199.198975,728.220520 187.820312,716.618286 176.346863,705.116211 
	C167.307617,696.054382 157.918427,687.341187 148.899963,678.259399 
	C146.529602,675.872437 144.958450,672.691895 143.008331,669.521301 
	C178.353943,669.120239 213.711533,669.073608 249.532974,669.097046 
z"/>
<path fill="#FC300C" opacity="1.000000" stroke="none" 
	d="
M2.063184,617.480896 
	C3.395084,618.660217 5.982702,620.503906 5.765543,621.916382 
	C4.906988,627.500916 8.082433,631.237122 11.279610,634.487488 
	C17.912407,641.230530 25.275280,647.248779 32.101475,653.811035 
	C35.872208,657.435974 39.036560,661.683655 42.699127,665.430786 
	C49.938641,672.837463 57.377705,680.048767 64.648453,687.425476 
	C68.688705,691.524597 72.419525,695.933960 76.533142,699.954529 
	C82.658493,705.941223 89.143387,711.562988 95.209106,717.607178 
	C101.788956,724.163757 108.050034,731.039673 114.487381,737.740540 
	C115.391075,738.681152 116.381882,739.733032 117.546021,740.194275 
	C122.116852,742.005432 123.760490,745.293091 122.996979,750.417480 
	C82.992638,750.890930 42.989346,750.941528 2.525477,750.927734 
	C2.053288,706.557983 2.041674,662.252502 2.063184,617.480896 
z"/>
<path fill="#FC4411" opacity="1.000000" stroke="none" 
	d="
M83.297493,558.590088 
	C81.964874,559.512939 80.768486,560.457275 79.565483,560.465759 
	C77.742905,560.478638 74.546753,560.241150 74.305275,559.416077 
	C72.215767,552.276672 63.245251,551.477844 61.048405,544.602112 
	C60.664055,543.399109 59.156807,542.354797 59.179657,541.258362 
	C59.255054,537.640198 57.430664,536.445862 54.193043,535.726379 
	C51.682606,535.168396 50.359756,533.423218 51.896008,530.422913 
	C52.453831,529.333557 51.684872,527.564758 51.521278,526.105957 
	C50.247486,526.418457 48.987717,526.866882 47.695431,527.000305 
	C46.674397,527.105652 45.083954,527.195862 44.687180,526.631409 
	C43.993767,525.644958 43.927330,524.161621 43.774410,522.865723 
	C43.587639,521.282837 43.582527,519.678589 43.498852,518.083557 
	C42.224705,518.410706 40.965790,518.882874 39.671562,519.018677 
	C38.651760,519.125732 37.056362,519.185120 36.662430,518.613708 
	C35.978886,517.622192 35.942661,516.136536 35.789192,514.839783 
	C35.601837,513.256714 35.573517,511.654816 35.476418,510.061066 
	C34.201942,510.402832 32.943924,510.898712 31.647736,511.037140 
	C30.629177,511.145844 29.028772,511.174622 28.637594,510.596069 
	C27.963865,509.599548 27.958002,508.111420 27.803825,506.813904 
	C27.615734,505.230988 27.563856,503.631866 27.453068,502.039764 
	C26.178547,502.395721 24.921709,502.914856 23.623854,503.055450 
	C22.606596,503.165680 21.270868,503.137054 20.567394,502.565765 
	C19.845432,501.979462 19.094095,500.148651 19.428738,499.738800 
	C23.022852,495.337433 19.404074,492.441376 17.066580,489.863647 
	C13.434050,485.857849 9.174715,482.414764 5.110717,478.812531 
	C4.552099,478.317383 3.589943,478.277466 2.459662,478.022827 
	C2.064640,434.985535 2.024563,391.952179 1.946808,348.449310 
	C1.948478,340.302032 1.987825,332.624268 2.392775,324.529114 
	C4.306837,325.308319 6.032743,326.334503 7.373764,327.730408 
	C14.009895,334.638153 20.454624,341.730804 27.132532,348.597137 
	C42.859318,364.767578 58.639584,380.886688 74.503456,396.922455 
	C77.118172,399.565521 80.266243,401.680969 83.167831,404.040253 
	C83.273758,418.498169 83.459007,432.955994 83.470093,447.413971 
	C83.498390,484.340149 83.449051,521.266357 83.297493,558.590088 
M64.569206,542.716187 
	C64.917618,543.316467 65.266037,543.916748 65.614433,544.517029 
	C65.996895,544.136597 66.379364,543.756165 66.761826,543.375732 
	C66.180626,543.025696 65.599426,542.675659 64.569206,542.716187 
M74.479286,552.256287 
	C74.198074,552.059998 73.916855,551.863708 73.635635,551.667358 
	C73.816177,551.959106 73.996719,552.250793 74.479286,552.256287 
z"/>
<path fill="#FC4E13" opacity="1.000000" stroke="none" 
	d="
M83.309143,403.589172 
	C80.266243,401.680969 77.118172,399.565521 74.503456,396.922455 
	C58.639584,380.886688 42.859318,364.767578 27.132532,348.597137 
	C20.454624,341.730804 14.009895,334.638153 7.373764,327.730408 
	C6.032743,326.334503 4.306837,325.308319 2.420319,324.061951 
	C2.064776,277.325958 2.047292,230.639725 2.054964,183.487701 
	C5.248487,186.048706 8.515563,188.979919 11.561059,192.125656 
	C15.678649,196.378754 19.507957,200.913269 23.666714,205.123810 
	C42.682293,224.376205 61.767361,243.559982 80.846001,262.749969 
	C81.299744,263.206360 81.970779,263.446747 82.858566,263.931335 
	C83.276352,265.748383 83.376015,267.422028 83.358192,269.806183 
	C83.326347,271.551025 83.411987,272.585358 83.497627,273.619659 
	C83.481903,316.792480 83.466171,359.965302 83.309143,403.589172 
z"/>
<path fill="#FB6B1A" opacity="1.000000" stroke="none" 
	d="
M750.908813,707.541870 
	C748.174316,706.109070 745.198608,704.521057 742.881226,702.258728 
	C732.478882,692.104004 722.150391,681.867554 712.019897,671.442383 
	C705.008179,664.226685 698.455078,656.567383 691.525879,649.268921 
	C685.501892,642.923950 679.263306,636.781189 673.046936,630.622375 
	C672.282349,629.864868 671.069031,629.560242 669.724976,629.032654 
	C669.308044,626.864563 669.162964,624.709656 669.161377,622.554565 
	C669.125488,574.498108 669.105469,526.441650 668.996704,477.768738 
	C668.910950,477.152283 669.096741,477.019867 669.331665,476.751099 
	C669.451416,474.675232 669.336182,472.868134 669.125732,470.870972 
	C668.926941,470.409119 668.898193,470.129639 668.944275,469.842499 
	C669.033203,459.206024 669.122070,448.569550 669.295227,437.472107 
	C673.322327,436.662415 675.638062,438.077637 677.415894,442.013702 
	C678.820190,445.122437 682.087097,447.425781 684.642700,449.970367 
	C688.734619,454.044464 692.919983,458.024811 697.070679,462.039703 
	C700.027588,464.899780 703.072327,467.674042 705.937866,470.622681 
	C712.597046,477.475037 719.303345,484.289703 725.731384,491.355408 
	C729.666504,495.680786 732.249084,502.202423 737.012634,504.565399 
	C743.049255,507.559875 744.946228,513.797058 750.508667,516.950684 
	C750.891479,540.622864 750.977661,564.234375 750.988953,587.845825 
	C751.007935,627.589294 750.979309,667.332703 750.908813,707.541870 
z"/>
<path fill="#262324" opacity="1.000000" stroke="none" 
	d="
M83.930496,273.698914 
	C83.411987,272.585358 83.326347,271.551025 83.366196,270.226105 
	C92.480782,269.935486 101.469887,269.935486 110.770569,269.935486 
	C120.504944,295.734894 130.204498,321.442017 140.318283,348.246948 
	C145.671936,333.575714 150.664307,320.088623 155.431503,306.522430 
	C155.895142,305.203064 155.184143,303.317780 154.651596,301.826141 
	C150.917358,291.366882 147.086716,280.942047 143.100403,269.994019 
	C149.068039,269.994019 154.533890,269.789459 159.961304,270.155273 
	C161.138992,270.234680 162.673126,272.171570 163.208252,273.571899 
	C171.918472,296.365601 180.491058,319.211853 189.106079,342.041992 
	C189.798935,343.878113 190.574768,345.682953 191.558426,348.110382 
	C199.850754,325.334991 207.919006,303.176025 215.985703,281.016449 
	C216.440399,279.767426 216.877502,278.512024 217.330688,277.262421 
	C220.073074,269.700806 220.073853,269.701080 229.170593,270.239227 
	C217.372406,302.567078 205.638992,334.717499 193.951736,366.741455 
	C193.369492,366.859222 193.045227,366.983826 192.721939,366.981323 
	C188.063873,366.945557 182.314499,368.535950 179.059891,366.374268 
	C175.907806,364.280670 175.220657,358.361389 173.627716,354.056915 
	C169.317764,342.410553 165.101776,330.729431 160.543716,318.225922 
	C154.859344,333.707611 149.359879,348.290802 144.216751,362.998596 
	C143.072983,366.269440 141.592926,367.371490 138.245193,367.078949 
	C134.620285,366.762207 130.946304,367.007202 127.132317,367.007202 
	C118.864769,344.236633 110.649071,321.618317 102.441765,298.997009 
	C100.574066,293.849182 98.376045,288.786438 96.973740,283.513336 
	C95.191818,276.812836 90.972366,273.906525 83.930496,273.698914 
z"/>
<path fill="#262223" opacity="1.000000" stroke="none" 
	d="
M302.962616,474.354370 
	C304.240967,476.330566 305.316315,478.532135 307.051727,479.375580 
	C309.525269,480.577759 312.526672,480.643341 315.213440,481.480560 
	C316.385529,481.845795 317.336609,482.920349 318.388031,483.672760 
	C318.220032,484.096130 318.052032,484.519470 317.884003,484.942810 
	C316.456329,485.020660 315.028687,485.164581 313.600922,485.166168 
	C298.443817,485.182892 283.286652,485.206482 268.129639,485.170593 
	C243.992340,485.113403 229.914307,472.843170 228.127792,448.667511 
	C227.229431,436.510498 227.512253,424.008301 229.318665,411.971008 
	C231.894531,394.806061 242.214157,384.990356 259.382965,382.653137 
	C267.946472,381.487366 277.046631,381.933594 285.581024,383.458557 
	C296.934296,385.487213 305.112427,392.834137 308.877625,403.864624 
	C315.465393,423.164062 315.310059,442.760529 309.391815,462.193146 
	C308.118164,466.375336 305.209747,470.059631 302.962616,474.354370 
M247.845047,428.532043 
	C247.900833,434.508331 247.301758,440.582703 248.178314,446.436066 
	C249.272354,453.741760 250.759567,461.209015 253.587540,467.975220 
	C256.681030,475.376648 263.560547,478.279419 271.588806,477.992859 
	C279.350372,477.715790 285.184052,473.992371 287.851288,466.882721 
	C290.093689,460.905640 291.689545,454.481445 292.289276,448.134033 
	C293.651733,433.714020 293.899963,419.204224 289.950989,405.058380 
	C287.028442,394.589325 280.544006,389.193024 271.528687,389.005035 
	C261.271729,388.791138 253.999268,393.700897 251.137085,404.463684 
	C249.153992,411.920776 248.881714,419.832794 247.845047,428.532043 
z"/>
<path fill="#272324" opacity="1.000000" stroke="none" 
	d="
M295.667480,364.754364 
	C280.107849,372.468689 264.421844,372.286896 248.878189,366.593170 
	C237.193375,362.312897 231.553848,352.482300 229.103439,340.840546 
	C225.978607,325.994629 225.961868,311.021576 229.258759,296.216431 
	C232.830139,280.178589 242.483078,269.643799 259.213348,267.787231 
	C267.849976,266.828827 276.924133,266.954773 285.448395,268.514984 
	C298.068054,270.824768 306.318176,279.349915 309.871338,291.634155 
	C315.068176,309.601013 315.058777,327.764587 309.971619,345.785553 
	C307.732941,353.716003 303.062714,360.106323 295.667480,364.754364 
M292.510498,331.884521 
	C292.669830,329.062775 292.963715,326.241119 292.965149,323.419312 
	C292.971436,311.283417 293.398956,299.054138 289.004578,287.442352 
	C283.791840,273.668121 267.350708,269.051025 257.525970,278.998596 
	C253.994125,282.574615 251.424255,287.841370 250.165665,292.782349 
	C246.471588,307.284607 246.986679,322.162842 248.754395,336.883240 
	C249.431976,342.525818 251.250351,348.277832 253.745529,353.396667 
	C257.288605,360.665131 263.938568,363.444611 271.990479,363.017212 
	C279.365753,362.625763 285.025604,359.143158 287.577606,352.457642 
	C289.968597,346.193909 290.899536,339.372864 292.510498,331.884521 
z"/>
<path fill="#252122" opacity="1.000000" stroke="none" 
	d="
M485.995605,285.004150 
	C485.995605,279.864288 485.995605,275.223694 485.995605,269.915344 
	C504.094299,270.748901 522.084412,268.013031 539.771484,272.202789 
	C554.093933,275.595551 561.968506,285.476227 564.957947,299.475342 
	C567.667297,312.163147 567.580261,324.926605 564.955627,337.624084 
	C561.520264,354.243561 550.854004,364.680878 533.852783,365.780945 
	C518.148987,366.797028 502.327728,365.997284 485.995605,365.997284 
	C485.995605,339.659485 485.995605,312.581451 485.995605,285.004150 
M546.463989,310.542816 
	C546.298401,308.219940 546.163086,305.894409 545.962158,303.574585 
	C544.735413,289.409668 538.994385,280.694275 527.940796,278.432831 
	C520.587769,276.928467 512.891418,277.102356 505.541504,276.539856 
	C505.192078,277.845947 505.039093,278.151215 505.038849,278.456573 
	C505.018890,301.276825 505.009338,324.097076 505.002747,346.917328 
	C504.999146,359.353119 506.146759,360.442383 518.754822,359.990204 
	C519.419861,359.966370 520.084595,359.913422 520.747498,359.852539 
	C535.314148,358.514099 542.973694,351.865326 545.027039,337.389557 
	C546.235229,328.871582 546.047607,320.155640 546.463989,310.542816 
z"/>
<path fill="#262223" opacity="1.000000" stroke="none" 
	d="
M326.823151,305.999878 
	C326.823151,293.861298 326.823151,282.222748 326.823151,269.890869 
	C344.581390,270.789429 362.252319,267.958893 379.607849,272.165070 
	C397.236969,276.437592 404.804810,294.120514 396.235016,310.172943 
	C391.966736,318.167999 384.388702,320.804749 375.524231,322.373352 
	C385.483826,337.290863 395.197235,351.839600 405.321747,367.004120 
	C398.405090,367.004120 392.298309,367.094421 386.199280,366.917206 
	C385.156219,366.886902 383.763855,365.956421 383.178253,365.032593 
	C373.403961,349.613892 363.732574,334.129974 353.777283,318.244080 
	C357.062714,317.800110 359.950073,317.533875 362.788300,317.004089 
	C373.080627,315.083099 378.813477,307.344452 378.479156,295.964630 
	C378.142151,284.493347 373.040710,278.484833 361.913849,277.302124 
	C356.830994,276.761871 351.643036,277.210266 346.043610,277.210266 
	C346.043610,306.929138 346.043610,336.630768 346.043610,366.667664 
	C339.538055,366.667664 333.479614,366.667664 326.823151,366.667664 
	C326.823151,346.649902 326.823151,326.574921 326.823151,305.999878 
z"/>
<path fill="#262223" opacity="1.000000" stroke="none" 
	d="
M531.170166,419.857697 
	C527.611084,413.708435 524.219482,407.884979 520.092773,400.799225 
	C520.092773,428.567627 520.092773,454.899750 520.092773,481.618103 
	C516.787476,481.618103 513.896484,481.618103 510.743500,481.618103 
	C510.743500,449.658478 510.743500,417.584778 510.743500,384.996765 
	C516.479370,384.996765 522.102051,384.753723 527.676880,385.163208 
	C529.117188,385.269012 530.829041,387.176239 531.702942,388.672516 
	C545.188477,411.761627 558.554871,434.920288 571.954834,458.059418 
	C572.664124,459.284210 573.425293,460.478973 574.875610,462.857544 
	C574.875610,436.178741 574.875610,410.838745 574.875610,385.248566 
	C578.049500,385.248566 580.797119,385.248566 583.862793,385.248566 
	C583.862793,417.282776 583.862793,449.331970 583.862793,481.994019 
	C578.908325,481.994019 573.787537,482.232971 568.718140,481.828278 
	C567.429626,481.725403 565.985657,479.763367 565.152466,478.339905 
	C553.825317,458.986969 542.593262,439.578369 531.170166,419.857697 
z"/>
<path fill="#262223" opacity="1.000000" stroke="none" 
	d="
M326.823914,398.007202 
	C326.823914,393.529633 326.823914,389.550964 326.823914,385.285034 
	C333.124573,385.285034 339.199066,385.285034 345.845703,385.285034 
	C345.845703,387.095551 345.845703,388.868561 345.845703,390.641602 
	C345.845795,411.298096 345.731323,431.955719 345.932037,452.610291 
	C345.978271,457.368591 346.735504,462.203522 347.829681,466.846680 
	C349.156006,472.475342 353.082703,476.722900 358.751617,477.162109 
	C365.380768,477.675720 372.487274,477.709900 378.754120,475.836304 
	C387.346497,473.267365 389.827301,465.240509 389.996979,457.038391 
	C390.382599,438.397156 390.358459,419.747345 390.482819,401.100891 
	C390.517120,395.954987 390.488007,390.808685 390.488007,385.330994 
	C393.987396,385.330994 397.209442,385.330994 400.782471,385.330994 
	C400.852570,386.650696 400.994720,388.092346 400.995758,389.534149 
	C401.010040,409.690887 401.062347,429.847961 400.957520,450.004150 
	C400.935974,454.147797 400.564850,458.328827 399.914276,462.422607 
	C398.067413,474.044098 391.071045,482.328064 379.317139,483.743042 
	C369.063660,484.977356 358.303986,485.032135 348.149048,483.331940 
	C333.829803,480.934540 326.946838,470.534698 326.850372,454.478363 
	C326.738312,435.821564 326.824036,417.163605 326.823914,398.007202 
z"/>
<path fill="#272324" opacity="1.000000" stroke="none" 
	d="
M435.751862,441.335938 
	C430.394928,426.623199 425.030029,412.327240 420.049713,397.898560 
	C418.227264,392.618652 415.436279,389.314026 409.611145,388.848969 
	C408.348907,388.748199 407.190308,387.349396 405.983978,386.548492 
	C406.205719,386.029999 406.427490,385.511536 406.649231,384.993042 
	C415.097870,384.993042 423.549500,384.885803 431.991425,385.123871 
	C433.091461,385.154907 434.644623,386.761414 435.132721,387.980560 
	C438.278015,395.836761 441.278412,403.755035 444.119080,411.726807 
	C445.083893,414.434296 446.336090,415.645782 449.449310,415.566925 
	C458.772278,415.330811 468.107086,415.374390 477.432892,415.546967 
	C480.302704,415.600098 481.432251,414.525513 482.335846,411.893402 
	C485.405487,402.951538 488.794403,394.119324 492.096710,385.149231 
	C495.018463,385.149231 497.813416,385.149231 501.312653,385.149231 
	C489.468140,417.608826 477.730286,449.776123 465.999634,481.923645 
	C460.850159,481.923645 454.937805,483.624237 451.513458,481.434326 
	C448.240356,479.341125 447.419006,473.251526 445.762085,468.827881 
	C442.387177,459.817596 439.175262,450.746277 435.751862,441.335938 
M462.261993,459.884583 
	C462.665833,460.691986 463.069641,461.499390 463.774536,462.908752 
	C468.740479,449.200867 473.498749,436.066223 478.268402,422.900085 
	C467.966614,422.900085 458.429596,422.900085 448.445435,422.900085 
	C453.107330,435.343292 457.575745,447.270142 462.261993,459.884583 
z"/>
<path fill="#231F20" opacity="1.000000" stroke="none" 
	d="
M668.593262,384.981537 
	C669.174255,387.106720 669.281189,389.247009 669.228149,391.710327 
	C659.610474,392.033356 650.152832,392.033356 640.267700,392.033356 
	C640.267700,422.080017 640.267700,451.792236 640.267700,481.750854 
	C633.754761,481.750854 627.669800,481.750854 621.186646,481.750854 
	C621.186646,452.046539 621.186646,422.330688 621.186646,392.181885 
	C611.235046,392.181885 601.661682,392.181885 591.794800,392.181885 
	C591.794800,389.682465 591.794800,387.611969 591.794800,384.996613 
	C617.291077,384.996613 642.705200,384.996613 668.593262,384.981537 
z"/>
<path fill="#2C2829" opacity="1.000000" stroke="none" 
	d="
M455.999512,367.019165 
	C443.027008,367.019165 430.554443,367.019165 417.767151,367.019165 
	C417.767151,334.743347 417.767151,302.705048 417.767151,270.322754 
	C423.810577,270.322754 429.869293,270.322754 436.541168,270.322754 
	C436.541168,271.995758 436.541199,273.772186 436.541168,275.548645 
	C436.541016,299.679138 436.538727,323.809601 436.545410,347.940094 
	C436.545868,349.602173 436.539551,351.269775 436.662781,352.925385 
	C437.153809,359.522644 437.617889,359.964142 444.089844,359.975525 
	C454.215485,359.993286 464.341187,359.980225 474.741974,359.980225 
	C474.741974,362.318176 474.741974,364.382355 474.741974,367.019165 
	C468.702698,367.019165 462.601074,367.019165 455.999512,367.019165 
z"/>
<path fill="#363334" opacity="1.000000" stroke="none" 
	d="
M668.646729,469.594177 
	C668.898193,470.129639 668.926941,470.409119 669.101929,471.294159 
	C669.147827,473.611572 669.122253,475.315735 669.096741,477.019867 
	C669.096741,477.019867 668.910950,477.152283 668.932007,477.264343 
	C663.582947,483.867554 655.755737,483.828613 652.880249,477.296478 
	C651.015381,473.060059 652.494507,468.191681 656.317749,465.982300 
	C660.537659,463.543732 664.862915,464.752899 668.646729,469.594177 
M656.344910,468.307892 
	C653.560730,471.505676 653.074829,474.663483 656.993774,477.774017 
	C656.993774,474.842377 656.993774,471.910767 657.886353,468.895691 
	C659.824524,468.895691 661.762756,468.895691 663.583923,468.895691 
	C663.762329,472.225830 663.916504,475.103516 664.070618,477.981201 
	C668.182312,475.108459 668.013855,471.938934 665.732666,469.159973 
	C663.379089,466.292999 660.248779,465.858429 656.344910,468.307892 
z"/>
<path fill="#FC380E" opacity="1.000000" stroke="none" 
	d="
M64.793716,542.520874 
	C65.599426,542.675659 66.180626,543.025696 66.761826,543.375732 
	C66.379364,543.756165 65.996895,544.136597 65.614441,544.517029 
	C65.266037,543.916748 64.917618,543.316467 64.793716,542.520874 
z"/>
<path fill="#FC380E" opacity="1.000000" stroke="none" 
	d="
M74.328278,552.399414 
	C73.996719,552.250793 73.816177,551.959106 73.635635,551.667358 
	C73.916855,551.863708 74.198074,552.059998 74.328278,552.399414 
z"/>
<path fill="#FB791E" opacity="1.000000" stroke="none" 
	d="
M669.331665,476.751099 
	C669.122253,475.315735 669.147827,473.611572 669.197144,471.484253 
	C669.336182,472.868134 669.451416,474.675232 669.331665,476.751099 
z"/>
<path fill="#FEFDFE" opacity="1.000000" stroke="none" 
	d="
M247.845032,428.036804 
	C248.881714,419.832794 249.153992,411.920776 251.137085,404.463684 
	C253.999268,393.700897 261.271729,388.791138 271.528687,389.005035 
	C280.544006,389.193024 287.028442,394.589325 289.950989,405.058380 
	C293.899963,419.204224 293.651733,433.714020 292.289276,448.134033 
	C291.689545,454.481445 290.093689,460.905640 287.851288,466.882721 
	C285.184052,473.992371 279.350372,477.715790 271.588806,477.992859 
	C263.560547,478.279419 256.681030,475.376648 253.587540,467.975220 
	C250.759567,461.209015 249.272354,453.741760 248.178314,446.436066 
	C247.301758,440.582703 247.900833,434.508331 247.845032,428.036804 
z"/>
<path fill="#FEFDFD" opacity="1.000000" stroke="none" 
	d="
M292.491730,332.340790 
	C290.899536,339.372864 289.968597,346.193909 287.577606,352.457642 
	C285.025604,359.143158 279.365753,362.625763 271.990479,363.017212 
	C263.938568,363.444611 257.288605,360.665131 253.745529,353.396667 
	C251.250351,348.277832 249.431976,342.525818 248.754395,336.883240 
	C246.986679,322.162842 246.471588,307.284607 250.165665,292.782349 
	C251.424255,287.841370 253.994125,282.574615 257.525970,278.998596 
	C267.350708,269.051025 283.791840,273.668121 289.004578,287.442352 
	C293.398956,299.054138 292.971436,311.283417 292.965149,323.419312 
	C292.963715,326.241119 292.669830,329.062775 292.491730,332.340790 
z"/>
<path fill="#FEFEFE" opacity="1.000000" stroke="none" 
	d="
M546.475830,311.035767 
	C546.047607,320.155640 546.235229,328.871582 545.027039,337.389557 
	C542.973694,351.865326 535.314148,358.514099 520.747498,359.852539 
	C520.084595,359.913422 519.419861,359.966370 518.754822,359.990204 
	C506.146759,360.442383 504.999146,359.353119 505.002747,346.917328 
	C505.009338,324.097076 505.018890,301.276825 505.038849,278.456573 
	C505.039093,278.151215 505.192078,277.845947 505.541504,276.539856 
	C512.891418,277.102356 520.587769,276.928467 527.940796,278.432831 
	C538.994385,280.694275 544.735413,289.409668 545.962158,303.574585 
	C546.163086,305.894409 546.298401,308.219940 546.475830,311.035767 
z"/>
<path fill="#F8F8F8" opacity="1.000000" stroke="none" 
	d="
M462.153076,459.540771 
	C457.575745,447.270142 453.107330,435.343292 448.445435,422.900085 
	C458.429596,422.900085 467.966614,422.900085 478.268402,422.900085 
	C473.498749,436.066223 468.740479,449.200867 463.774536,462.908752 
	C463.069641,461.499390 462.665833,460.691986 462.153076,459.540771 
z"/>
<path fill="#F2F1F1" opacity="1.000000" stroke="none" 
	d="
M657.047119,468.153015 
	C660.248779,465.858429 663.379089,466.292999 665.732666,469.159973 
	C668.013855,471.938934 668.182312,475.108459 664.070618,477.981201 
	C663.916504,475.103516 663.762329,472.225830 663.583923,468.895691 
	C661.762756,468.895691 659.824524,468.895691 657.457764,468.731171 
	C657.029236,468.566650 657.047119,468.153015 657.047119,468.153015 
z"/>
<path fill="#EEEEEE" opacity="1.000000" stroke="none" 
	d="
M656.696045,468.230469 
	C657.047119,468.153015 657.029236,468.566650 657.011475,468.772888 
	C656.993774,471.910767 656.993774,474.842377 656.993774,477.774017 
	C653.074829,474.663483 653.560730,471.505676 656.696045,468.230469 
z"/>
</svg>